# xmcd
#
# Track frame offsets:
#	150
#	14595
#	28508
#	42740
#	59634
#	77336
#	94514
#	108959
#	122871
#	137103
#	153997
#	171698
#
# Disc length: 2518 seconds
#
# Revision: 1
# Processed by: cddbd v1.5.2PL0 Copyright (c) Steve Scherf et al.
# Submitted via: audiograbber 1.83.01
#
DISCID=a209d40c
DTITLE=Dixie Chicks 6+6 - CBCDG20084
DYEAR=1999
DGENRE=KARAOKE
TTITLE0=I Can Love You Better (V)
TTITLE1=Let 'Er Rip (V)
TTITLE2=There's Your Trouble (V)
TTITLE3=Tonight The Heartache's On Me (V)
TTITLE4=Wide Open Spaces (V)
TTITLE5=You Were Mine (V)
TTITLE6=I Can Love You Better
TTITLE7=Let 'Er Rip
TTITLE8=There's Your Trouble
TTITLE9=Tonight The Heartache's On Me
TTITLE10=Wide Open Spaces
TTITLE11=You Were Mine
EXTD=
EXTT0=
EXTT1=
EXTT2=
EXTT3=
EXTT4=
EXTT5=
EXTT6=
EXTT7=
EXTT8=
EXTT9=
EXTT10=
EXTT11=
PLAYORDER=
